<?xml version="1.0" encoding="utf-8"?>
<!-- Generator: Adobe Illustrator 19.0.0, SVG Export Plug-In . SVG Version: 6.00 Build 0)  -->
<svg version="1.1" id="图层_1" xmlns="http://www.w3.org/2000/svg" xmlns:xlink="http://www.w3.org/1999/xlink" x="0px" y="0px"
	 viewBox="-230 223 178 36" style="enable-background:new -230 223 178 36;" xml:space="preserve">
<style type="text/css">
	.st0{fill:#144098;}
</style>
<g>
	<path class="st0" d="M-133.8,245.7h-6.4l3.2-6.6L-133.8,245.7z M-132.8,247.5l2.1,4.1h2.4l-8.6-17l-8.6,17h2.4l2.1-4.1H-132.8z"/>
	<path class="st0" d="M-119.4,241.8c-0.4-0.2-0.9-0.4-1.4-0.5s-1-0.2-1.5-0.2c-0.9,0-1.7,0.1-2.4,0.4c-0.8,0.3-1.4,0.7-2,1.1
		c-0.6,0.5-1,1.1-1.3,1.7c-0.3,0.7-0.5,1.4-0.5,2.2s0.2,1.5,0.5,2.1s0.8,1.2,1.3,1.7s1.2,0.8,1.9,1.1c0.7,0.3,1.5,0.4,2.3,0.4
		c0.6,0,1.1-0.1,1.6-0.2c0.5-0.1,1-0.3,1.5-0.5v-2.5c-0.4,0.4-0.9,0.7-1.4,1c-0.5,0.2-1.1,0.4-1.7,0.4s-1.1-0.1-1.6-0.3
		s-0.9-0.4-1.2-0.7c-0.3-0.3-0.6-0.7-0.8-1.1c-0.2-0.4-0.3-0.9-0.3-1.4s0.1-0.9,0.3-1.3c0.2-0.4,0.5-0.8,0.8-1.1s0.7-0.6,1.2-0.8
		s0.9-0.3,1.5-0.3c1.3,0,2.3,0.5,3.2,1.4C-119.4,244.4-119.4,241.8-119.4,241.8z"/>
	<path class="st0" d="M-107.2,241.5h-2.2v1.7l0,0c-0.4-0.6-1-1.1-1.7-1.4c-0.7-0.4-1.4-0.5-2.2-0.5c-0.8,0-1.6,0.1-2.2,0.4
		c-0.7,0.3-1.2,0.7-1.7,1.2s-0.8,1-1.1,1.7c-0.2,0.6-0.4,1.3-0.4,2s0.1,1.4,0.4,2.1c0.2,0.7,0.6,1.2,1,1.7c0.5,0.5,1,0.9,1.7,1.2
		s1.4,0.4,2.3,0.4c0.8,0,1.5-0.2,2.2-0.5c0.6-0.4,1.2-0.8,1.6-1.4l0,0v1.6h2.2L-107.2,241.5L-107.2,241.5z M-114.4,249.9
		c-0.4-0.2-0.8-0.5-1.1-0.8c-0.3-0.3-0.5-0.7-0.7-1.2c-0.2-0.4-0.2-0.9-0.2-1.4s0.1-0.9,0.2-1.4c0.2-0.4,0.4-0.8,0.7-1.2
		c0.3-0.3,0.7-0.6,1.1-0.8s0.9-0.3,1.5-0.3s1.1,0.1,1.5,0.3s0.8,0.5,1.2,0.8c0.3,0.3,0.5,0.7,0.7,1.2c0.2,0.4,0.2,0.9,0.2,1.4
		s-0.1,1-0.2,1.4c-0.2,0.4-0.4,0.8-0.7,1.2c-0.3,0.3-0.7,0.6-1.1,0.8s-1,0.3-1.6,0.3C-113.4,250.2-113.9,250.1-114.4,249.9z"/>
	<path class="st0" d="M-96.6,251.6h2.2v-18.7h-2.2v10.3l0,0c-0.4-0.6-1-1.1-1.7-1.4c-0.7-0.4-1.4-0.5-2.3-0.5
		c-0.8,0-1.5,0.1-2.2,0.4c-0.6,0.3-1.2,0.7-1.7,1.2s-0.8,1-1.1,1.7c-0.2,0.6-0.4,1.3-0.4,2s0.1,1.4,0.3,2.1c0.2,0.7,0.6,1.2,1,1.7
		c0.5,0.5,1,0.9,1.7,1.2s1.4,0.4,2.3,0.4c0.8,0,1.5-0.2,2.2-0.5c0.7-0.4,1.2-0.8,1.6-1.4l0,0v1.5H-96.6z M-101.6,249.9
		c-0.4-0.2-0.8-0.5-1.1-0.8c-0.3-0.3-0.5-0.7-0.7-1.2c-0.2-0.4-0.2-0.9-0.2-1.4s0.1-0.9,0.2-1.4c0.2-0.4,0.4-0.8,0.7-1.2
		c0.3-0.3,0.7-0.6,1.1-0.8s0.9-0.3,1.5-0.3s1.1,0.1,1.5,0.3c0.5,0.2,0.8,0.5,1.2,0.8c0.3,0.3,0.5,0.7,0.7,1.2
		c0.2,0.4,0.2,0.9,0.2,1.4s-0.1,1-0.2,1.4c-0.2,0.4-0.4,0.8-0.7,1.2c-0.3,0.3-0.7,0.6-1.1,0.8s-1,0.3-1.6,0.3
		S-101.2,250.1-101.6,249.9z"/>
	<path class="st0" d="M-90.8,245.4c0.1-0.7,0.5-1.3,1.1-1.8s1.3-0.7,2.1-0.7c0.9,0,1.6,0.2,2.1,0.7s0.9,1.1,1,1.8H-90.8z
		 M-82.3,246.9v-0.3c0-0.7-0.1-1.5-0.3-2.1c-0.2-0.7-0.5-1.2-1-1.7c-0.4-0.5-1-0.9-1.6-1.1c-0.7-0.3-1.4-0.4-2.3-0.4
		s-1.7,0.1-2.4,0.4c-0.7,0.3-1.2,0.7-1.7,1.1c-0.5,0.5-0.8,1.1-1,1.7c-0.2,0.7-0.3,1.4-0.3,2.2c0,0.7,0.1,1.4,0.4,2.1
		c0.3,0.6,0.6,1.2,1.1,1.7s1,0.8,1.7,1.1s1.5,0.4,2.3,0.4c1.1,0,2.1-0.2,3-0.7s1.6-1.2,2.2-2l-1.8-0.9c-0.4,0.6-0.9,1.1-1.4,1.4
		c-0.5,0.4-1.2,0.5-2,0.5c-0.5,0-1-0.1-1.4-0.3s-0.8-0.4-1.1-0.7c-0.3-0.3-0.5-0.7-0.7-1.1c-0.2-0.4-0.2-0.8-0.2-1.3L-82.3,246.9
		L-82.3,246.9z"/>
	<path class="st0" d="M-79,241.5h-2.2v10.1h2.2v-5c0-0.4,0-0.8,0.1-1.2c0-0.4,0.1-0.8,0.3-1.2s0.4-0.7,0.8-0.9s0.8-0.4,1.4-0.4
		c0.5,0,0.9,0.1,1.2,0.3c0.3,0.2,0.5,0.5,0.6,0.8s0.2,0.7,0.2,1.1c0,0.4,0,0.7,0,1.1v5.4h2.2v-5c0-0.4,0-0.8,0.1-1.2
		c0-0.4,0.1-0.8,0.3-1.2s0.4-0.7,0.7-0.9c0.3-0.2,0.8-0.4,1.4-0.4c0.5,0,0.9,0.1,1.1,0.3c0.3,0.2,0.5,0.4,0.6,0.7s0.2,0.6,0.3,1
		c0,0.4,0.1,0.7,0.1,1v5.7h2.2v-6c0-0.6-0.1-1.1-0.2-1.7c-0.1-0.5-0.3-1-0.6-1.4c-0.3-0.4-0.7-0.7-1.1-1c-0.5-0.2-1.1-0.4-1.8-0.4
		c-0.7,0-1.4,0.2-2,0.5s-1.1,0.8-1.5,1.3c-0.4-0.6-0.8-1-1.3-1.3s-1.2-0.5-1.9-0.5c-0.6,0-1.2,0.2-1.7,0.5s-1,0.7-1.3,1.1l0,0v-1.2
		L-79,241.5L-79,241.5z"/>
	<path class="st0" d="M-59.9,249.9l-4.4,7.5h2.4l9.1-15.9h-2.4l-3.5,6.4l-3.8-6.4H-65L-59.9,249.9z"/>
	<path class="st0" d="M-192.5,224.6l8.9,3.4l-12,3.8l-8.6-3.8L-192.5,224.6z"/>
	<path class="st0" d="M-219.4,246.7c-0.8,0-1.5-0.1-2.1-0.3s-1.1-0.4-1.4-0.8c-0.4-0.3-0.6-0.7-0.6-1.2c-0.1-0.5,0-1,0.3-1.5
		c0.2-0.6,0.6-1.1,1.1-1.6s1-0.9,1.7-1.2c0.6-0.3,1.3-0.6,2.1-0.8s1.5-0.3,2.3-0.3h9.4l5.5-4.1h-13.1c-1.6,0-3.2,0.2-4.7,0.6
		c-1.5,0.4-3,0.9-4.2,1.6c-1.3,0.7-2.4,1.5-3.4,2.5s-1.7,2-2.2,3.2s-0.7,2.2-0.5,3.2c0.1,1,0.6,1.8,1.3,2.6c0.7,0.7,1.6,1.3,2.8,1.7
		s2.6,0.6,4.2,0.6h9.4l5.5-4.1L-219.4,246.7L-219.4,246.7z"/>
	<path class="st0" d="M-193.4,234.9h-5.8l-6.8,15.8h5.8L-193.4,234.9z"/>
	<path class="st0" d="M-176.4,250.8c0.4-0.1,0.9-0.3,1.3-0.5s0.8-0.6,1.1-0.9c0.3-0.4,0.6-0.8,0.8-1.3l5.6-13.1h-5.3l-4,9.3
		l-7.7-8.7c-0.3-0.4-0.6-0.6-0.9-0.7c-0.3-0.1-0.7-0.2-1-0.2c-0.4,0-0.8,0.1-1.3,0.2c-0.4,0.1-0.8,0.3-1.2,0.5s-0.8,0.5-1.1,0.9
		s-0.6,0.8-0.8,1.3l-5.6,13.1h5.3l4-9.3l7.7,8.7c0.3,0.4,0.6,0.6,0.9,0.7c0.3,0.1,0.7,0.2,1,0.2C-177.3,251-176.8,250.9-176.4,250.8
		z"/>
	<path class="st0" d="M-163.4,246.7l0.9-2.2h11.5l4.9-3.6h-14.8l0.8-1.9h12.1l5.5-4.1h-21.7l-6.8,15.8h18l5.5-4.1h-15.9V246.7
		L-163.4,246.7z"/>
</g>
</svg>
