<?xml version="1.0" encoding="utf-8"?>
<!-- Generator: Adobe Illustrator 19.0.0, SVG Export Plug-In . SVG Version: 6.00 Build 0)  -->
<svg version="1.1" id="图层_1" xmlns="http://www.w3.org/2000/svg" xmlns:xlink="http://www.w3.org/1999/xlink" x="0px" y="0px"
	 viewBox="231 222 178 36" style="enable-background:new 231 222 178 36;" xml:space="preserve">
<style type="text/css">
	.st0{fill:none;}
	.st1{fill:#FFFFFF;}
</style>
<rect x="230" y="222" class="st0" width="180" height="36"/>
<g>
	<path class="st1" d="M260.9,223.2l10.3,3.6l-10.3,4.1l-10.3-4.1L260.9,223.2z"/>
	<path class="st1" d="M243.4,246.7c-0.8,0-1.5-0.1-2.2-0.3c-0.7-0.2-1.3-0.5-1.8-0.8c-0.5-0.4-0.9-0.8-1.1-1.3
		c-0.3-0.5-0.4-1-0.4-1.7c0-0.7,0.1-1.2,0.4-1.7s0.7-0.9,1.1-1.3c0.5-0.4,1.1-0.6,1.7-0.8c0.6-0.2,1.4-0.3,2.2-0.3h9.4l3.7-4.4
		h-13.1c-1.6,0-3.1,0.2-4.5,0.6c-1.4,0.4-2.6,1-3.6,1.7c-1,0.7-1.8,1.6-2.4,2.6c-0.6,1-0.9,2.1-0.9,3.4c0,1.2,0.3,2.4,0.9,3.4
		c0.6,1.1,1.4,2,2.4,2.7c1,0.8,2.2,1.4,3.6,1.8c1.4,0.4,2.9,0.7,4.5,0.7h9.4l3.7-4.3L243.4,246.7L243.4,246.7z"/>
	<path class="st1" d="M264.5,234.2h-5.8V251h5.8V234.2z"/>
	<path class="st1" d="M288.3,251.1c0.4-0.1,0.7-0.3,1-0.6c0.3-0.3,0.5-0.6,0.7-1s0.3-0.9,0.3-1.4v-14H285v9.9l-11.5-9.3
		c-0.5-0.4-0.9-0.6-1.2-0.7c-0.4-0.1-0.7-0.2-1.1-0.2c-0.4,0-0.8,0.1-1.2,0.2c-0.4,0.1-0.7,0.3-1,0.6c-0.3,0.3-0.5,0.6-0.7,1
		s-0.3,0.9-0.3,1.4v14h5.3v-9.9l11.5,9.3c0.4,0.4,0.9,0.6,1.2,0.7c0.4,0.1,0.7,0.2,1.1,0.2C287.5,251.3,287.9,251.2,288.3,251.1z"/>
	<path class="st1" d="M299.5,246.7v-2.3H311l3.3-3.8h-14.8v-2h12.1l3.8-4.4h-21.7V251h18l3.7-4.3H299.5z"/>
	<path class="st1" d="M327.3,245.1h-6.4l3.2-6.6L327.3,245.1z M328.2,246.9l2.1,4.1h2.4l-8.6-17l-8.6,17h2.4l2.1-4.1H328.2z"/>
	<path class="st1" d="M341.7,241.3c-0.4-0.2-0.9-0.4-1.4-0.5s-1-0.2-1.5-0.2c-0.9,0-1.7,0.1-2.4,0.4c-0.8,0.3-1.4,0.7-2,1.1
		c-0.6,0.5-1,1.1-1.3,1.7c-0.3,0.7-0.5,1.4-0.5,2.2c0,0.8,0.2,1.5,0.5,2.1s0.8,1.2,1.3,1.7s1.2,0.8,1.9,1.1c0.7,0.3,1.5,0.4,2.3,0.4
		c0.6,0,1.1-0.1,1.6-0.2s1-0.3,1.5-0.5v-2.5c-0.4,0.4-0.9,0.7-1.4,1c-0.5,0.2-1.1,0.4-1.7,0.4c-0.6,0-1.1-0.1-1.6-0.3
		c-0.5-0.2-0.9-0.4-1.2-0.7c-0.3-0.3-0.6-0.7-0.8-1.1c-0.2-0.4-0.3-0.9-0.3-1.4s0.1-0.9,0.3-1.3s0.5-0.8,0.8-1.1
		c0.3-0.3,0.7-0.6,1.2-0.8c0.5-0.2,0.9-0.3,1.5-0.3c1.3,0,2.3,0.5,3.2,1.4V241.3z"/>
	<path class="st1" d="M353.9,240.9h-2.2v1.7l0,0c-0.4-0.6-1-1.1-1.7-1.4c-0.7-0.4-1.4-0.5-2.2-0.5s-1.6,0.1-2.2,0.4
		c-0.7,0.3-1.2,0.7-1.7,1.2s-0.8,1-1.1,1.7c-0.2,0.6-0.4,1.3-0.4,2c0,0.7,0.1,1.4,0.4,2.1c0.2,0.7,0.6,1.2,1,1.7
		c0.5,0.5,1,0.9,1.7,1.2c0.7,0.3,1.4,0.4,2.3,0.4c0.8,0,1.5-0.2,2.2-0.5c0.6-0.4,1.2-0.8,1.6-1.4l0,0v1.6h2.2v-10.2H353.9z
		 M346.7,249.3c-0.4-0.2-0.8-0.5-1.1-0.8c-0.3-0.3-0.5-0.7-0.7-1.2c-0.2-0.4-0.2-0.9-0.2-1.4s0.1-0.9,0.2-1.4
		c0.2-0.4,0.4-0.8,0.7-1.2c0.3-0.3,0.7-0.6,1.1-0.8c0.4-0.2,0.9-0.3,1.5-0.3c0.6,0,1.1,0.1,1.5,0.3c0.5,0.2,0.8,0.5,1.2,0.8
		c0.3,0.3,0.5,0.7,0.7,1.2c0.2,0.4,0.2,0.9,0.2,1.4s-0.1,1-0.2,1.4c-0.2,0.4-0.4,0.8-0.7,1.2c-0.3,0.3-0.7,0.6-1.1,0.8
		c-0.4,0.2-1,0.3-1.6,0.3C347.7,249.6,347,249.5,346.7,249.3z"/>
	<path class="st1" d="M364.5,251h2.2v-18.7h-2.2v10.3l0,0c-0.4-0.6-1-1.1-1.7-1.4c-0.7-0.4-1.4-0.5-2.3-0.5c-0.8,0-1.5,0.1-2.2,0.4
		c-0.6,0.3-1.2,0.7-1.7,1.2s-0.8,1-1.1,1.7c-0.2,0.6-0.4,1.3-0.4,2c0,0.7,0.1,1.4,0.3,2.1s0.6,1.2,1,1.7c0.5,0.5,1,0.9,1.7,1.2
		c0.7,0.3,1.4,0.4,2.3,0.4c0.8,0,1.5-0.2,2.2-0.5c0.7-0.4,1.2-0.8,1.6-1.4l0,0v1.5H364.5z M359.5,249.3c-0.4-0.2-0.8-0.5-1.1-0.8
		c-0.3-0.3-0.5-0.7-0.7-1.2c-0.2-0.4-0.2-0.9-0.2-1.4s0.1-0.9,0.2-1.4c0.2-0.4,0.4-0.8,0.7-1.2c0.3-0.3,0.7-0.6,1.1-0.8
		c0.4-0.2,0.9-0.3,1.5-0.3c0.6,0,1.1,0.1,1.5,0.3c0.5,0.2,0.8,0.5,1.2,0.8c0.3,0.3,0.5,0.7,0.7,1.2c0.2,0.4,0.2,0.9,0.2,1.4
		s-0.1,1-0.2,1.4c-0.2,0.4-0.4,0.8-0.7,1.2c-0.3,0.3-0.7,0.6-1.1,0.8c-0.4,0.2-1,0.3-1.6,0.3S359.9,249.5,359.5,249.3z"/>
	<path class="st1" d="M370.3,244.8c0.1-0.7,0.5-1.3,1.1-1.8c0.6-0.5,1.3-0.7,2.1-0.7c0.9,0,1.6,0.2,2.1,0.7s0.9,1.1,1,1.8H370.3z
		 M378.7,246.3V246c0-0.7-0.1-1.5-0.3-2.1c-0.2-0.7-0.5-1.2-1-1.7c-0.4-0.5-1-0.9-1.6-1.1c-0.7-0.3-1.4-0.4-2.3-0.4
		c-0.9,0-1.7,0.1-2.4,0.4c-0.7,0.3-1.2,0.7-1.7,1.1c-0.5,0.5-0.8,1.1-1,1.7c-0.2,0.7-0.3,1.4-0.3,2.2c0,0.7,0.1,1.4,0.4,2.1
		c0.3,0.6,0.6,1.2,1.1,1.7s1,0.8,1.7,1.1c0.7,0.3,1.5,0.4,2.3,0.4c1.1,0,2.1-0.2,3-0.7c0.9-0.5,1.6-1.2,2.2-2l-1.8-0.9
		c-0.4,0.6-0.9,1.1-1.4,1.4c-0.5,0.4-1.2,0.5-2,0.5c-0.5,0-1-0.1-1.4-0.3c-0.4-0.2-0.8-0.4-1.1-0.7c-0.3-0.3-0.5-0.7-0.7-1.1
		s-0.2-0.8-0.2-1.3L378.7,246.3L378.7,246.3z"/>
	<path class="st1" d="M382,240.9h-2.2V251h2.2v-5c0-0.4,0-0.8,0.1-1.2c0-0.4,0.1-0.8,0.3-1.2s0.4-0.7,0.8-0.9
		c0.3-0.2,0.8-0.4,1.4-0.4c0.5,0,0.9,0.1,1.2,0.3c0.3,0.2,0.5,0.5,0.6,0.8c0.1,0.3,0.2,0.7,0.2,1.1s0,0.7,0,1.1v5.4h2.2v-5
		c0-0.4,0-0.8,0.1-1.2c0-0.4,0.1-0.8,0.3-1.2c0.2-0.4,0.4-0.7,0.7-0.9c0.3-0.2,0.8-0.4,1.4-0.4c0.5,0,0.9,0.1,1.1,0.3
		c0.3,0.2,0.5,0.4,0.6,0.7c0.1,0.3,0.2,0.6,0.3,1c0,0.4,0.1,0.7,0.1,1v5.7h2.2v-6c0-0.6-0.1-1.1-0.2-1.7c-0.1-0.5-0.3-1-0.6-1.4
		s-0.7-0.7-1.1-1c-0.5-0.2-1.1-0.4-1.8-0.4s-1.4,0.2-2,0.5c-0.6,0.3-1.1,0.8-1.5,1.3c-0.4-0.6-0.8-1-1.3-1.3
		c-0.5-0.3-1.2-0.5-1.9-0.5c-0.6,0-1.2,0.2-1.7,0.5c-0.5,0.3-1,0.7-1.3,1.1l0,0v-1.2H382z"/>
	<path class="st1" d="M401,249.3l-4.4,7.5h2.4l9.1-15.9h-2.4l-3.5,6.4l-3.8-6.4H396L401,249.3z"/>
</g>
</svg>
